<svg width="18" height="18" viewBox="0 0 18 18" fill="none" xmlns="http://www.w3.org/2000/svg">
<path d="M17.2973 3.84961C16.6855 4.12031 16.0316 4.30313 15.3426 4.3875C16.0457 3.96563 16.5871 3.29766 16.8402 2.50312C16.1828 2.89336 15.4551 3.17812 14.6781 3.3293C14.0559 2.66484 13.1699 2.25 12.1926 2.25C10.3117 2.25 8.78945 3.77578 8.78945 5.65664C8.78945 5.92383 8.81758 6.18398 8.87734 6.43359C6.04727 6.29297 3.53711 4.93594 1.86016 2.87227C1.56836 3.375 1.39961 3.96211 1.39961 4.58437C1.39961 5.76562 2.0043 6.80977 2.91836 7.42148C2.35586 7.40742 1.82852 7.25273 1.37148 6.99609V7.03828C1.37148 8.69062 2.5457 10.0652 4.10312 10.3781C3.81836 10.4555 3.51602 10.4977 3.20664 10.4977C2.98867 10.4977 2.77422 10.4766 2.5668 10.4344C2.99922 11.7879 4.25781 12.7723 5.74844 12.8004C4.58477 13.7145 3.11523 14.2594 1.51914 14.2594C1.24492 14.2594 0.974219 14.2418 0.707031 14.2102C2.2082 15.1875 3.99766 15.75 5.91719 15.75C12.1855 15.75 15.6098 10.5574 15.6098 6.05391C15.6098 5.90625 15.6063 5.75859 15.5992 5.61445C16.2637 5.13281 16.8402 4.53516 17.2973 3.84961Z" fill="white"/>
</svg>
