<svg width="18" height="18" viewBox="0 0 18 18" fill="none" xmlns="http://www.w3.org/2000/svg">
<path d="M8.99935 6.65685C7.70912 6.65685 6.65619 7.70977 6.65619 9.00001C6.65619 10.2902 7.70912 11.3432 8.99935 11.3432C10.2896 11.3432 11.3425 10.2902 11.3425 9.00001C11.3425 7.70977 10.2896 6.65685 8.99935 6.65685ZM16.0271 9.00001C16.0271 8.0297 16.0359 7.06817 15.9814 6.09962C15.9269 4.97462 15.6703 3.97618 14.8476 3.15353C14.0232 2.32911 13.0265 2.07423 11.9015 2.01974C10.9312 1.96524 9.96966 1.97403 9.00111 1.97403C8.0308 1.97403 7.06927 1.96524 6.10072 2.01974C4.97572 2.07423 3.97728 2.33087 3.15462 3.15353C2.33021 3.97794 2.07533 4.97462 2.02084 6.09962C1.96634 7.06993 1.97513 8.03145 1.97513 9.00001C1.97513 9.96856 1.96634 10.9318 2.02084 11.9004C2.07533 13.0254 2.33197 14.0238 3.15462 14.8465C3.97904 15.6709 4.97572 15.9258 6.10072 15.9803C7.07103 16.0348 8.03255 16.026 9.00111 16.026C9.97142 16.026 10.9329 16.0348 11.9015 15.9803C13.0265 15.9258 14.0249 15.6691 14.8476 14.8465C15.672 14.0221 15.9269 13.0254 15.9814 11.9004C16.0376 10.9318 16.0271 9.97032 16.0271 9.00001ZM8.99935 12.6053C7.00423 12.6053 5.39408 10.9951 5.39408 9.00001C5.39408 7.00489 7.00423 5.39474 8.99935 5.39474C10.9945 5.39474 12.6046 7.00489 12.6046 9.00001C12.6046 10.9951 10.9945 12.6053 8.99935 12.6053ZM12.7523 6.08907C12.2865 6.08907 11.9103 5.7129 11.9103 5.24708C11.9103 4.78126 12.2865 4.40509 12.7523 4.40509C13.2181 4.40509 13.5943 4.78126 13.5943 5.24708C13.5944 5.35769 13.5727 5.46724 13.5305 5.56946C13.4882 5.67168 13.4262 5.76455 13.348 5.84277C13.2698 5.92098 13.1769 5.983 13.0747 6.02526C12.9724 6.06753 12.8629 6.08921 12.7523 6.08907Z" fill="white"/>
</svg>
